<svg width="71" height="53" viewBox="0 0 71 53" fill="none" xmlns="http://www.w3.org/2000/svg">
<path d="M68.2107 18.126C66.4287 14.5996 63.8453 11.3957 60.6036 8.692C57.3697 5.98177 53.5376 3.82186 49.3196 2.332C44.9376 0.78175 40.2941 0 35.5 0C30.7059 0 26.0624 0.78175 21.6804 2.332C17.4624 3.82186 13.6303 5.98177 10.3964 8.692C7.15474 11.3957 4.57129 14.5996 2.78929 18.126C0.935044 21.7896 0 25.6719 0 29.68C0 38.4714 4.61975 46.7526 12.6706 52.4104L12.8054 52.5031C13.265 52.8211 13.8434 53 14.4377 53H56.5702C57.1645 53 57.743 52.8211 58.2026 52.5031L58.3373 52.4104C66.3802 46.7526 71 38.4714 71 29.68C71 25.6719 70.057 21.7896 68.2107 18.126ZM55.2627 47.965H15.7373C12.6754 45.6568 10.2282 42.8361 8.55452 39.6861C6.88086 36.536 6.01813 33.1269 6.02232 29.68C6.02232 23.0948 9.08895 16.907 14.6596 12.2563C20.2302 7.59888 27.6314 5.035 35.5 5.035C43.3766 5.035 50.7777 7.59888 56.3404 12.2563C61.9111 16.9136 64.9777 23.1014 64.9777 29.68C64.9777 36.676 61.4515 43.2944 55.2627 47.965ZM44.3354 20.5044C44.2162 20.4057 44.0553 20.3504 43.8877 20.3504C43.72 20.3504 43.5591 20.4057 43.44 20.5044L36.7441 26.1025C35.2623 25.7713 33.622 26.0893 32.4571 27.0631C32.0446 27.4074 31.7172 27.8163 31.4939 28.2665C31.2706 28.7167 31.1556 29.1993 31.1556 29.6866C31.1556 30.174 31.2706 30.6566 31.4939 31.1067C31.7172 31.5569 32.0446 31.9658 32.4571 32.3101C32.8689 32.6551 33.3581 32.9287 33.8965 33.1154C34.435 33.3022 35.0122 33.3983 35.5951 33.3983C36.178 33.3983 36.7552 33.3022 37.2937 33.1154C37.8321 32.9287 38.3212 32.6551 38.733 32.3101C39.2849 31.8501 39.6818 31.2765 39.8835 30.6471C40.0853 30.0178 40.0848 29.3551 39.882 28.726L46.5779 23.1279C46.8235 22.9225 46.8235 22.5846 46.5779 22.3793L44.3354 20.5044ZM33.7567 13.78H37.2433C37.592 13.78 37.8772 13.5415 37.8772 13.25V7.95C37.8772 7.6585 37.592 7.42 37.2433 7.42H33.7567C33.408 7.42 33.1228 7.6585 33.1228 7.95V13.25C33.1228 13.5415 33.408 13.78 33.7567 13.78ZM54.3594 28.2225V31.1375C54.3594 31.429 54.6446 31.6675 54.9933 31.6675H61.3326C61.6813 31.6675 61.9665 31.429 61.9665 31.1375V28.2225C61.9665 27.931 61.6813 27.6925 61.3326 27.6925H54.9933C54.6446 27.6925 54.3594 27.931 54.3594 28.2225ZM55.3657 15.158L52.9013 13.0976C52.7822 12.999 52.6213 12.9437 52.4536 12.9437C52.286 12.9437 52.1251 12.999 52.0059 13.0976L47.5209 16.8474C47.4029 16.947 47.3367 17.0815 47.3367 17.2217C47.3367 17.3619 47.4029 17.4964 47.5209 17.596L49.9853 19.6564C50.2309 19.8618 50.635 19.8618 50.8807 19.6564L55.3657 15.9066C55.6114 15.7013 55.6114 15.3634 55.3657 15.158ZM19.0258 13.0976C18.9066 12.999 18.7457 12.9437 18.5781 12.9437C18.4104 12.9437 18.2495 12.999 18.1304 13.0976L15.666 15.158C15.548 15.2576 15.4818 15.3921 15.4818 15.5323C15.4818 15.6725 15.548 15.807 15.666 15.9066L20.151 19.6564C20.3967 19.8618 20.8008 19.8618 21.0464 19.6564L23.5108 17.596C23.7565 17.3906 23.7565 17.0527 23.5108 16.8474L19.0258 13.0976ZM15.6897 27.6925H9.35045C9.00179 27.6925 8.71652 27.931 8.71652 28.2225V31.1375C8.71652 31.429 9.00179 31.6675 9.35045 31.6675H15.6897C16.0384 31.6675 16.3237 31.429 16.3237 31.1375V28.2225C16.3237 27.931 16.0384 27.6925 15.6897 27.6925Z" fill="white"/>
</svg>
