<svg width="43" height="53" viewBox="0 0 43 53" fill="none" xmlns="http://www.w3.org/2000/svg">
<path d="M41.7737 37.4517L32.3673 32.4828C31.9655 32.2718 31.5189 32.2273 31.0948 32.3561C30.6706 32.4849 30.292 32.7801 30.0157 33.1971L25.85 39.4703C19.3123 35.671 14.051 29.1861 10.9686 21.128L16.0581 15.9935C16.3971 15.6537 16.6371 15.1869 16.7416 14.6639C16.8462 14.1409 16.8097 13.5902 16.6376 13.0951L12.6063 1.5011C12.4174 0.967373 12.0834 0.531602 11.6617 0.26893C11.2401 0.00625779 10.7573 -0.0668521 10.2967 0.062207L1.56214 2.54663C1.11799 2.67304 0.721728 2.98127 0.438016 3.42102C0.154303 3.86077 -0.000102312 4.40606 5.08636e-08 4.9679C5.08636e-08 31.5201 17.4607 53 38.9694 53C39.4254 53.0004 39.868 52.8102 40.225 52.4604C40.5819 52.1107 40.8321 51.6222 40.9347 51.0746L42.9504 40.3088C43.0544 39.7382 42.9938 39.1408 42.7791 38.6193C42.5643 38.0978 42.2088 37.6849 41.7737 37.4517V37.4517Z" fill="black"/>
</svg>
