<svg width="49" height="36" viewBox="0 0 49 36" fill="none" xmlns="http://www.w3.org/2000/svg">
<path d="M48.9453 13.2515L47.6494 11.2587C47.5911 11.1709 47.4957 11.1069 47.384 11.0807C47.2724 11.0546 47.1535 11.0684 47.0533 11.1191L44.2809 12.5439L39.9992 2.13718C39.7731 1.51622 39.3287 0.974558 38.7301 0.590411C38.1315 0.206265 37.4097 -0.000489384 36.669 8.69853e-07H12.9747C11.0772 8.69853e-07 9.39296 1.07822 8.80785 2.67148L4.72848 12.5487L1.95058 11.1239C1.85042 11.0732 1.73153 11.0594 1.61985 11.0855C1.50818 11.1117 1.41279 11.1757 1.35453 11.2635L0.0585377 13.2515C-0.0617654 13.4344 0.00932287 13.6655 0.217119 13.7714L3.51999 15.4657L2.72708 17.3911C2.66146 17.5451 2.62865 17.7088 2.62865 17.8724V34.633C2.62865 35.3887 3.27391 36 4.06682 36H7.7634C8.43601 36 9.02112 35.5523 9.16329 34.9266L9.58436 33.1119H39.4195L39.8406 34.9266C39.9882 35.5523 40.5679 36 41.2405 36H44.9371C45.73 36 46.3752 35.3887 46.3752 34.633V17.8724C46.3752 17.7088 46.3424 17.5451 46.2768 17.3911L45.4839 15.4657L48.7813 13.7714C48.8806 13.7209 48.9534 13.6382 48.984 13.541C49.0147 13.4437 49.0008 13.3398 48.9453 13.2515V13.2515ZM10.9405 23.2443C9.732 23.2443 8.75317 22.3827 8.75317 21.3189C8.75317 20.2551 9.732 19.3935 10.9405 19.3935C12.149 19.3935 13.1278 20.2551 13.1278 21.3189C13.1278 22.3827 12.149 23.2443 10.9405 23.2443ZM32.1576 26.8544C32.1576 27.0662 31.9607 27.2395 31.7201 27.2395H17.2838C17.0431 27.2395 16.8463 27.0662 16.8463 26.8544V22.8111C16.8463 22.5993 17.0431 22.426 17.2838 22.426H19.4711C19.7117 22.426 19.9085 22.5993 19.9085 22.8111V24.5439H29.0953V22.8111C29.0953 22.5993 29.2922 22.426 29.5328 22.426H31.7201C31.9607 22.426 32.1576 22.5993 32.1576 22.8111V26.8544ZM38.0634 23.2443C36.8549 23.2443 35.8761 22.3827 35.8761 21.3189C35.8761 20.2551 36.8549 19.3935 38.0634 19.3935C39.2719 19.3935 40.2507 20.2551 40.2507 21.3189C40.2507 22.3827 39.2719 23.2443 38.0634 23.2443ZM8.53444 13.4729L12.5099 3.85078L12.5373 3.78821L12.5591 3.72563C12.6193 3.56679 12.7833 3.46089 12.9747 3.46089H36.3573L40.4804 13.4729H8.53444Z" fill="white"/>
</svg>
